HIERARCHY
ROOT hip
{
  OFFSET 0 0 0
  CHANNELS 6 Xposition Yposition Zposition Zrotation Yrotation Xrotation
  JOINT abdomen
  {
    OFFSET 0 20.6881 -0.73152
    CHANNELS 3 Zrotation Xrotation Yrotation
    JOINT chest
    {
      OFFSET 0 11.7043 -0.48768
      CHANNELS 3 Zrotation Xrotation Yrotation
      JOINT neck
      {
        OFFSET 0 22.1894 -2.19456
        CHANNELS 3 Zrotation Xrotation Yrotation
        JOINT head
        {
          OFFSET -0.24384 7.07133 1.2192
          CHANNELS 3 Zrotation Xrotation Yrotation
          JOINT leftEye
          {
            OFFSET 4.14528 8.04674 8.04672
            CHANNELS 3 Zrotation Xrotation Yrotation
            End Site
            {
              OFFSET 1 0 0
            }
          }
          JOINT rightEye
          {
            OFFSET -3.6576 8.04674 8.04672
            CHANNELS 3 Zrotation Xrotation Yrotation
            End Site
            {
              OFFSET 1 0 0
            }
          }
        }
      }
      JOINT rCollar
      {
        OFFSET -2.68224 19.2634 -4.8768
        CHANNELS 3 Zrotation Xrotation Yrotation
        JOINT rShldr
        {
          OFFSET -8.77824 -1.95073 1.46304
          CHANNELS 3 Zrotation Xrotation Yrotation
          JOINT rForeArm
          {
            OFFSET -28.1742 -1.7115 0.48768
            CHANNELS 3 Zrotation Xrotation Yrotation
            JOINT rHand
            {
              OFFSET -22.5879 0.773209 7.07136
              CHANNELS 3 Zrotation Xrotation Yrotation
              JOINT rThumb1
              {
                OFFSET -1.2192 -0.487915 3.41376
                CHANNELS 3 Zrotation Xrotation Yrotation
                JOINT rThumb2
                {
                  OFFSET -3.37035 -0.52449 3.41376
                  CHANNELS 3 Zrotation Xrotation Yrotation
                  End Site
                  {
                    OFFSET -1.78271 -1.18214 1.43049
                  }
                }
              }
              JOINT rIndex1
              {
                OFFSET -7.75947 0.938293 5.60832
                CHANNELS 3 Zrotation Xrotation Yrotation
                JOINT rIndex2
                {
                  OFFSET -2.54057 -0.884171 1.56538
                  CHANNELS 3 Zrotation Xrotation Yrotation
                  End Site
                  {
                    OFFSET -1.62519 -0.234802 1.16502
                  }
                }
              }
              JOINT rMid1
              {
                OFFSET -8.24714 1.18213 3.41376
                CHANNELS 3 Zrotation Xrotation Yrotation
                JOINT rMid2
                {
                  OFFSET -3.10165 -0.590103 1.0647
                  CHANNELS 3 Zrotation Xrotation Yrotation
                  End Site
                  {
                    OFFSET -2.48547 -0.328903 0.83742
                  }
                }
              }
              JOINT rRing1
              {
                OFFSET -8.82822 0.546677 1.51678
                CHANNELS 3 Zrotation Xrotation Yrotation
                JOINT rRing2
                {
                  OFFSET -2.60934 -0.819778 -0.0198488
                  CHANNELS 3 Zrotation Xrotation Yrotation
                  End Site
                  {
                    OFFSET -2.33842 -0.294052 0.168128
                  }
                }
              }
              JOINT rPinky1
              {
                OFFSET -8.27202 -0.0477905 -0.4584
                CHANNELS 3 Zrotation Xrotation Yrotation
                JOINT rPinky2
                {
                  OFFSET -1.82734 -0.647385 -0.700984
                  CHANNELS 3 Zrotation Xrotation Yrotation
                  End Site
                  {
                    OFFSET -1.69225 -0.51767 -0.607171
                  }
                }
              }
            }
          }
        }
      }
      JOINT lCollar
      {
        OFFSET 2.68224 19.2634 -4.8768
        CHANNELS 3 Zrotation Xrotation Yrotation
        JOINT lShldr
        {
          OFFSET 8.77824 -1.95073 1.46304
          CHANNELS 3 Zrotation Xrotation Yrotation
          JOINT lForeArm
          {
            OFFSET 28.1742 -1.7115 0.48768
            CHANNELS 3 Zrotation Xrotation Yrotation
            JOINT lHand
            {
              OFFSET 22.5879 0.773209 7.07136
              CHANNELS 3 Zrotation Xrotation Yrotation
              JOINT lThumb1
              {
                OFFSET 1.2192 -0.487915 3.41376
                CHANNELS 3 Zrotation Xrotation Yrotation
                JOINT lThumb2
                {
                  OFFSET 3.37035 -0.52449 3.41376
                  CHANNELS 3 Zrotation Xrotation Yrotation
                  End Site
                  {
                    OFFSET 1.78271 -1.18214 1.43049
                  }
                }
              }
              JOINT lIndex1
              {
                OFFSET 7.75947 0.938293 5.60832
                CHANNELS 3 Zrotation Xrotation Yrotation
                JOINT lIndex2
                {
                  OFFSET 2.54057 -0.884171 1.56538
                  CHANNELS 3 Zrotation Xrotation Yrotation
                  End Site
                  {
                    OFFSET 1.62519 -0.234802 1.16502
                  }
                }
              }
              JOINT lMid1
              {
                OFFSET 8.24714 1.18213 3.41376
                CHANNELS 3 Zrotation Xrotation Yrotation
                JOINT lMid2
                {
                  OFFSET 3.10165 -0.590103 1.0647
                  CHANNELS 3 Zrotation Xrotation Yrotation
                  End Site
                  {
                    OFFSET 2.48547 -0.328903 0.83742
                  }
                }
              }
              JOINT lRing1
              {
                OFFSET 8.82822 0.546677 1.51678
                CHANNELS 3 Zrotation Xrotation Yrotation
                JOINT lRing2
                {
                  OFFSET 2.60934 -0.819778 -0.0198488
                  CHANNELS 3 Zrotation Xrotation Yrotation
                  End Site
                  {
                    OFFSET 2.33842 -0.294052 0.168128
                  }
                }
              }
              JOINT lPinky1
              {
                OFFSET 8.27202 -0.0477905 -0.4584
                CHANNELS 3 Zrotation Xrotation Yrotation
                JOINT lPinky2
                {
                  OFFSET 1.82734 -0.647385 -0.700984
                  CHANNELS 3 Zrotation Xrotation Yrotation
                  End Site
                  {
                    OFFSET 1.69225 -0.51767 -0.607171
                  }
                }
              }
            }
          }
        }
      }
    }
  }
  JOINT rButtock
  {
    OFFSET -8.77824 4.35084 1.2192
    CHANNELS 3 Zrotation Xrotation Yrotation
    JOINT rThigh
    {
      OFFSET 0 -1.70687 -2.19456
      CHANNELS 3 Zrotation Xrotation Yrotation
      JOINT rShin
      {
        OFFSET 0 -36.8199 0.73152
        CHANNELS 3 Zrotation Xrotation Yrotation
        JOINT rFoot
        {
          OFFSET 0.73152 -45.1104 -5.12064
          CHANNELS 3 Zrotation Xrotation Yrotation
          End Site
          {
            OFFSET -1.1221 -3.69964 12.103
          }
        }
      }
    }
  }
  JOINT lButtock
  {
    OFFSET 8.77824 4.35084 1.2192
    CHANNELS 3 Zrotation Xrotation Yrotation
    JOINT lThigh
    {
      OFFSET 0 -1.70687 -2.19456
      CHANNELS 3 Zrotation Xrotation Yrotation
      JOINT lShin
      {
        OFFSET 0 -36.8199 0.73152
        CHANNELS 3 Zrotation Xrotation Yrotation
        JOINT lFoot
        {
          OFFSET -0.73152 -45.1104 -5.12064
          CHANNELS 3 Zrotation Xrotation Yrotation
          End Site
          {
            OFFSET 1.1221 -3.69964 12.103
          }
        }
      }
    }
  }
}
MOTION
Frames:	4
Frame Time:	0.00833333
-62.8164 84.6272 22.3449 -439.847 -88.4251 441.753 0.72755 -5.74001 3.14746 -0.5114 -0.772854 0.677223 -6.47103 10.9521 -1.98762 22.5611 -66.5908 7.76999 -0.0 0.0 0.0 -0.0 0.0 0.0 2.67921e-15 9.47706e-14 -6.4605e-16 9.5602 -0.160828 69.9898 -28.3463 -33.4205 72.7494 -0.314031 15.7449 2.27083 7.72461e-11 -3.88457e-10 -1.98995e-10 1.32117e-10 -6.70359e-10 -3.45309e-10 7.72386e-11 -3.88444e-10 -1.99014e-10 7.73091 5.47488 0.417314 7.72461e-11 -3.88459e-10 -1.99001e-10 2.90554 0.965183 0.102902 7.72574e-11 -3.88459e-10 -1.98995e-10 10.2786 0.731801 0.0259123 7.72412e-11 -3.88459e-10 -1.98988e-10 2.22167 -0.733487 -0.20892 2.58876e-15 9.47706e-14 -9.44227e-16 -56.2482 36.9091 -30.0661 26.555 -24.9512 -59.2044 0.359279 16.8026 -2.43229 2.1864e-10 1.12347e-10 -1.43837e-10 3.75851e-10 1.9402e-10 -2.51663e-10 2.18635e-10 1.12348e-10 -1.43828e-10 -7.73091 5.47488 -0.417314 2.1864e-10 1.12349e-10 -1.43834e-10 -2.90554 0.965183 -0.102902 2.18629e-10 1.12347e-10 -1.43833e-10 -10.2786 0.731801 -0.0259123 2.18643e-10 1.12348e-10 -1.43834e-10 -2.22167 -0.733487 0.20892 -2.03217e-16 0.0 -3.88251e-19 -5.28822 -28.1922 -6.75405 -1.26054 61.6723 1.38871 0.511236 12.3981 -10.1543 2.03217e-16 0.0 3.88251e-19 -1.90409 -15.5752 -2.84503 0.0128789 20.6629 -0.0701591 0.402675 -4.56878 -0.593446
-63.5338 84.674 22.3802 -428.536 -88.4057 430.412 0.51862 -5.73588 2.97494 -0.457936 -0.852298 0.635053 -6.49463 11.065 -1.96878 22.7136 -66.7486 7.93945 -0.0 0.0 0.0 -0.0 0.0 0.0 8.66964e-15 2.12548e-13 -1.94988e-14 9.46232 -0.754477 70.0963 -28.3502 -33.4732 72.8361 -0.31718 15.8208 2.28237 -3.46082e-10 8.24642e-10 2.60205e-10 -5.94232e-10 1.42307e-09 4.54207e-10 -3.46089e-10 8.24654e-10 2.60185e-10 7.73091 5.47488 0.417314 -3.46082e-10 8.2464e-10 2.60199e-10 2.90554 0.965183 0.102902 -3.46073e-10 8.24639e-10 2.60205e-10 10.2786 0.731801 0.0259123 -3.46087e-10 8.24641e-10 2.60212e-10 2.22167 -0.733487 -0.20892 8.58404e-15 2.12548e-13 -1.9776e-14 -53.9097 36.481 -32.3678 26.7981 -25.6819 -60.3715 0.342757 16.4273 -2.37478 -2.50864e-10 -1.36916e-10 -4.65242e-11 -4.33954e-10 -2.37698e-10 -7.84664e-11 -2.50871e-10 -1.36915e-10 -4.65121e-11 -7.73091 5.47488 -0.417314 -2.50864e-10 -1.36914e-10 -4.65206e-11 -2.90554 0.965183 -0.102902 -2.50872e-10 -1.36916e-10 -4.65203e-11 -10.2786 0.731801 -0.0259123 -2.50861e-10 -1.36915e-10 -4.65201e-11 -2.22167 -0.733487 0.20892 -2.03217e-16 0.0 -3.88251e-19 -5.59693 -28.8753 -7.19034 -1.23564 61.3558 1.37058 0.478512 11.9778 -10.7325 2.03217e-16 0.0 3.88251e-19 -2.01912 -14.9504 -2.92678 0.00990751 20.479 -0.0972447 0.385996 -4.95871 -0.775965
-64.2502 84.7194 22.4111 -417.932 -88.3178 419.79 0.320717 -5.74006 2.80839 -0.406976 -0.936227 0.59485 -6.51978 11.175 -1.95407 22.8589 -66.9032 8.09551 -0.0 0.0 0.0 -0.0 0.0 0.0 1.80235e-14 3.79114e-13 -4.72797e-14 9.39245 -1.39117 70.2202 -28.3537 -33.5221 72.9167 -0.319799 15.884 2.29197 -1.20805e-09 3.24667e-09 1.16592e-09 -2.07374e-09 5.60346e-09 2.03124e-09 -1.20806e-09 3.24669e-09 1.1659e-09 7.73091 5.47488 0.417314 -1.20805e-09 3.24667e-09 1.16591e-09 2.90554 0.965183 0.102902 -1.20805e-09 3.24667e-09 1.16592e-09 10.2786 0.731801 0.0259123 -1.20806e-09 3.24667e-09 1.16592e-09 2.22167 -0.733487 -0.20892 1.79515e-14 3.79114e-13 -4.75157e-14 -51.5731 35.8907 -34.6821 27.0238 -26.4137 -61.5255 0.325161 16.0108 -2.31126 -1.27815e-09 -5.45369e-10 2.21392e-10 -2.20517e-09 -9.44963e-10 3.96347e-10 -1.27817e-09 -5.45369e-10 2.21408e-10 -7.73091 5.47488 -0.417314 -1.27815e-09 -5.45367e-10 2.21396e-10 -2.90554 0.965183 -0.102902 -1.27816e-09 -5.4537e-10 2.21397e-10 -10.2786 0.731801 -0.0259123 -1.27815e-09 -5.4537e-10 2.21397e-10 -2.22167 -0.733487 0.20892 -2.03217e-16 0.0 -3.88251e-19 -5.88829 -29.5159 -7.62017 -1.20019 60.8935 1.34366 0.425279 11.494 -11.3107 2.03217e-16 0.0 3.88251e-19 -2.11306 -14.3326 -3.01224 0.00703232 20.2818 -0.125357 0.367796 -5.3374 -0.954134
-64.9644 84.7627 22.4271 -408.758 -88.1711 410.611 0.133891 -5.75198 2.64872 -0.358005 -1.02459 0.556869 -6.5474 11.2817 -1.94308 22.9998 -67.0543 8.24081 -0.0 0.0 0.0 -0.0 0.0 0.0 2.67054e-14 5.19247e-13 -7.42189e-14 9.34804 -2.06536 70.3561 -28.3568 -33.5665 72.99 -0.322065 15.9385 2.30026 -2.1182e-09 5.7875e-09 2.11098e-09 -3.6361e-09 9.98908e-09 3.67681e-09 -2.11821e-09 5.78751e-09 2.11096e-09 7.73091 5.47488 0.417314 -2.1182e-09 5.7875e-09 2.11097e-09 2.90554 0.965183 0.102902 -2.1182e-09 5.7875e-09 2.11098e-09 10.2786 0.731801 0.0259123 -2.11821e-09 5.7875e-09 2.11099e-09 2.22167 -0.733487 -0.20892 2.66521e-14 5.19248e-13 -7.44076e-14 -49.271 35.1242 -36.9713 27.226 -27.1215 -62.6489 0.306386 15.5535 -2.24183 -2.33862e-09 -9.37725e-10 4.92378e-10 -4.03354e-09 -1.62435e-09 8.76931e-10 -2.33864e-09 -9.37726e-10 4.92398e-10 -7.73091 5.47488 -0.417314 -2.33862e-09 -9.37723e-10 4.92382e-10 -2.90554 0.965183 -0.102902 -2.33862e-09 -9.37727e-10 4.92384e-10 -10.2786 0.731801 -0.0259123 -2.33861e-09 -9.37727e-10 4.92383e-10 -2.22167 -0.733487 0.20892 -2.03217e-16 0.0 -3.88251e-19 -6.16178 -30.1107 -8.03639 -1.1562 60.2914 1.30981 0.354023 10.9682 -11.8715 2.03217e-16 0.0 3.88251e-19 -2.18475 -13.7225 -3.09799 0.00429604 20.0729 -0.153855 0.347587 -5.70437 -1.12982
